HIERARCHY
ROOT Hips
{
	OFFSET 0.000000 35.082581 0.000000
	CHANNELS 6 Xposition Yposition Zposition Xrotation Yrotation Zrotation 
	JOINT Spine
	{
		OFFSET 0.000000 6.876099 0.125700
		CHANNELS 3 Xrotation Yrotation Zrotation
		JOINT Spine1
		{
			OFFSET 0.000000 5.730043 0.104720
			CHANNELS 3 Xrotation Yrotation Zrotation
			JOINT Spine1_split
			{
				OFFSET 0.000000 5.730043 0.104720
				CHANNELS 3 Xrotation Yrotation Zrotation
				JOINT Spine2
				{
					OFFSET 0.000000 5.730043 0.104720
					CHANNELS 3 Xrotation Yrotation Zrotation
					JOINT Neck
					{
						OFFSET 0.000000 10.314075 0.188496
						CHANNELS 3 Xrotation Yrotation Zrotation
						JOINT Head
						{
							OFFSET 0.000000 7.643700 -2.377400
							CHANNELS 3 Xrotation Yrotation Zrotation
							JOINT HeadTop_End
							{
								OFFSET 0.000000 43.788605 -13.619600
								CHANNELS 3 Xrotation Yrotation Zrotation
								End Site
								{
									OFFSET 0.000000 0.000000 0.000000
								}
							}
						}
					}
					JOINT LeftShoulder
					{
						OFFSET 2.196100 4.412489 0.087492
						CHANNELS 3 Xrotation Yrotation Zrotation
						JOINT LeftShoulder_split
						{
							OFFSET 2.196100 4.412489 0.087492
							CHANNELS 3 Xrotation Yrotation Zrotation
							JOINT LeftArm
							{
								OFFSET 8.771219 -2.981674 -0.026999
								CHANNELS 3 Xrotation Yrotation Zrotation
								JOINT LeftForeArm
								{
									OFFSET 8.512804 0.000000 -0.000000
									CHANNELS 3 Xrotation Yrotation Zrotation
									JOINT LeftHand
									{
										OFFSET 18.484802 0.000000 -0.000000
										CHANNELS 3 Xrotation Yrotation Zrotation
										JOINT LeftHandThumb1
										{
											OFFSET 2.499420 -1.158070 2.653252
											CHANNELS 3 Xrotation Yrotation Zrotation
											JOINT LeftHandThumb2
											{
												OFFSET 2.370079 -1.368366 1.368366
												CHANNELS 3 Xrotation Yrotation Zrotation
												JOINT LeftHandThumb3
												{
													OFFSET 2.676727 -1.545410 1.545409
													CHANNELS 3 Xrotation Yrotation Zrotation
													JOINT LeftHandThumb4
													{
														OFFSET 1.692226 -0.977005 0.977007
														CHANNELS 3 Xrotation Yrotation Zrotation
														End Site
														{
															OFFSET 0.000000 0.000000 0.000000
														}
													}
												}
											}
										}
										JOINT LeftHandIndex1
										{
											OFFSET 7.924831 -0.457527 2.345128
											CHANNELS 3 Xrotation Yrotation Zrotation
											JOINT LeftHandIndex2
											{
												OFFSET 3.643303 0.000000 0.000000
												CHANNELS 3 Xrotation Yrotation Zrotation
												JOINT LeftHandIndex3
												{
													OFFSET 3.810799 0.000000 0.000000
													CHANNELS 3 Xrotation Yrotation Zrotation
													JOINT LeftHandIndex4
													{
														OFFSET 2.403702 0.000000 0.000000
														CHANNELS 3 Xrotation Yrotation Zrotation
														End Site
														{
															OFFSET 0.000000 0.000000 0.000000
														}
													}
												}
											}
										}
										JOINT LeftHandMiddle1
										{
											OFFSET 8.563995 0.000000 -0.000000
											CHANNELS 3 Xrotation Yrotation Zrotation
											JOINT LeftHandMiddle2
											{
												OFFSET 3.861618 0.000000 0.000000
												CHANNELS 3 Xrotation Yrotation Zrotation
												JOINT LeftHandMiddle3
												{
													OFFSET 3.701603 0.000000 0.000000
													CHANNELS 3 Xrotation Yrotation Zrotation
													JOINT LeftHandMiddle4
													{
														OFFSET 2.322544 0.000000 0.000000
														CHANNELS 3 Xrotation Yrotation Zrotation
														End Site
														{
															OFFSET 0.000000 0.000000 0.000000
														}
													}
												}
											}
										}
										JOINT LeftHandRing1
										{
											OFFSET 8.426460 -0.424637 -3.286992
											CHANNELS 3 Xrotation Yrotation Zrotation
											JOINT LeftHandRing2
											{
												OFFSET 3.126408 0.000000 0.000000
												CHANNELS 3 Xrotation Yrotation Zrotation
												JOINT LeftHandRing3
												{
													OFFSET 3.085026 0.000000 0.000000
													CHANNELS 3 Xrotation Yrotation Zrotation
													JOINT LeftHandRing4
													{
														OFFSET 1.644005 0.000000 0.000000
														CHANNELS 3 Xrotation Yrotation Zrotation
														End Site
														{
															OFFSET 0.000000 0.000000 0.000000
														}
													}
												}
											}
										}
									}
								}
							}
						}
					}
					JOINT RightShoulder
					{
						OFFSET -2.196100 4.412496 0.070690
						CHANNELS 3 Xrotation Yrotation Zrotation
						JOINT RightShoulder_split
						{
							OFFSET -2.196100 4.412496 0.070690
							CHANNELS 3 Xrotation Yrotation Zrotation
							JOINT RightArm
							{
								OFFSET -8.771282 -2.981682 -0.094208
								CHANNELS 3 Xrotation Yrotation Zrotation
								JOINT RightForeArm
								{
									OFFSET -8.494598 0.000000 0.000000
									CHANNELS 3 Xrotation Yrotation Zrotation
									JOINT RightHand
									{
										OFFSET -18.483803 0.000000 0.000001
										CHANNELS 3 Xrotation Yrotation Zrotation
										JOINT RightHandThumb1
										{
											OFFSET -2.527351 -1.008072 2.575253
											CHANNELS 3 Xrotation Yrotation Zrotation
											JOINT RightHandThumb2
											{
												OFFSET -2.321518 -1.340328 1.340329
												CHANNELS 3 Xrotation Yrotation Zrotation
												JOINT RightHandThumb3
												{
													OFFSET -2.657753 -1.534454 1.534455
													CHANNELS 3 Xrotation Yrotation Zrotation
													JOINT RightHandThumb4
													{
														OFFSET -1.807510 -1.043568 1.043567
														CHANNELS 3 Xrotation Yrotation Zrotation
														End Site
														{
															OFFSET 0.000000 0.000000 0.000000
														}
													}
												}
											}
										}
										JOINT RightHandIndex1
										{
											OFFSET -8.811420 0.015533 2.887987
											CHANNELS 3 Xrotation Yrotation Zrotation
											JOINT RightHandIndex2
											{
												OFFSET -3.537502 0.000000 0.000000
												CHANNELS 3 Xrotation Yrotation Zrotation
												JOINT RightHandIndex3
												{
													OFFSET -3.356201 0.000000 0.000000
													CHANNELS 3 Xrotation Yrotation Zrotation
													JOINT RightHandIndex4
													{
														OFFSET -1.933098 0.000000 0.000000
														CHANNELS 3 Xrotation Yrotation Zrotation
														End Site
														{
															OFFSET 0.000000 0.000000 0.000000
														}
													}
												}
											}
										}
										JOINT RightHandMiddle1
										{
											OFFSET -8.178135 0.000000 0.000000
											CHANNELS 3 Xrotation Yrotation Zrotation
											JOINT RightHandMiddle2
											{
												OFFSET -3.901302 0.000000 0.000000
												CHANNELS 3 Xrotation Yrotation Zrotation
												JOINT RightHandMiddle3
												{
													OFFSET -3.909599 0.000000 0.000000
													CHANNELS 3 Xrotation Yrotation Zrotation
													JOINT RightHandMiddle4
													{
														OFFSET -2.376003 0.000000 0.000000
														CHANNELS 3 Xrotation Yrotation Zrotation
														End Site
														{
															OFFSET 0.000000 0.000000 0.000000
														}
													}
												}
											}
										}
										JOINT RightHandRing1
										{
											OFFSET -7.559013 0.014137 -2.865403
											CHANNELS 3 Xrotation Yrotation Zrotation
											JOINT RightHandRing2
											{
												OFFSET -3.449306 0.000000 0.000000
												CHANNELS 3 Xrotation Yrotation Zrotation
												JOINT RightHandRing3
												{
													OFFSET -3.362106 0.000000 0.000000
													CHANNELS 3 Xrotation Yrotation Zrotation
													JOINT RightHandRing4
													{
														OFFSET -2.076401 0.000000 0.000000
														CHANNELS 3 Xrotation Yrotation Zrotation
														End Site
														{
															OFFSET 0.000000 0.000000 0.000000
														}
													}
												}
											}
										}
									}
								}
							}
						}
					}
				}
			}
		}
	}
	JOINT LeftUpLeg
	{
		OFFSET 10.205400 -3.823500 0.155100
		CHANNELS 3 Xrotation Yrotation Zrotation
		JOINT LeftLeg
		{
			OFFSET 0.708757 -12.982077 0.567790
			CHANNELS 3 Xrotation Yrotation Zrotation
			JOINT LeftFoot
			{
				OFFSET -0.708756 -10.717838 -2.184338
				CHANNELS 3 Xrotation Yrotation Zrotation
				JOINT LeftToeBase
				{
					OFFSET 0.108149 -7.191104 7.560241
					CHANNELS 3 Xrotation Yrotation Zrotation
					JOINT LeftToe_End
					{
						OFFSET 0.070230 0.081724 4.490308
						CHANNELS 3 Xrotation Yrotation Zrotation
						End Site
						{
							OFFSET 0.000000 0.000000 0.000000
						}
					}
				}
			}
		}
	}
	JOINT RightUpLeg
	{
		OFFSET -10.205400 -3.823500 0.005500
		CHANNELS 3 Xrotation Yrotation Zrotation
		JOINT RightLeg
		{
			OFFSET -0.708756 -12.982134 0.610632
			CHANNELS 3 Xrotation Yrotation Zrotation
			JOINT RightFoot
			{
				OFFSET 0.708754 -10.717769 -1.945823
				CHANNELS 3 Xrotation Yrotation Zrotation
				JOINT RightToeBase
				{
					OFFSET -0.108140 -7.191069 7.372968
					CHANNELS 3 Xrotation Yrotation Zrotation
					JOINT RightToe_End
					{
						OFFSET -0.070227 0.081735 4.479403
						CHANNELS 3 Xrotation Yrotation Zrotation
						End Site
						{
							OFFSET 0.000000 0.000000 0.000000
						}
					}
				}
			}
		}
	}
}
MOTION
Frames: 5
Frame Time: 0.016667
-0.001316 33.491096 -0.886798 2.912696 -29.017789 1.158369 7.836612 -0.331224 -2.653817 1.099255 -0.880540 2.383669 0.000000 0.000000 0.000000 1.108679 -0.590403 2.446524 -3.841321 18.019000 -6.496517 -6.333204 13.021598 0.301390 0.000000 0.000000 0.000000 -0.055833 -8.757999 -0.067369 0.000000 0.000000 0.000000 -55.250817 0.329429 -41.449375 11.607015 -65.826037 13.026214 -50.191041 12.352951 4.610862 17.563632 -5.694003 -12.929219 10.852313 26.148377 8.654087 20.924884 51.116412 0.219845 -0.000002 -0.000000 0.000003 13.978249 1.203575 -55.006061 0.372693 1.163876 -65.441852 1.986574 2.154434 -57.665115 0.000001 -0.000001 0.000002 7.502544 1.175428 -63.755294 1.809512 1.478256 -64.569876 0.130998 -0.903801 -43.270799 -0.000001 -0.000000 0.000000 8.574333 2.179122 -75.149006 -0.208033 1.014699 -57.856804 0.433172 1.760592 -53.580891 -0.000000 -0.000000 0.000000 4.849290 7.760135 5.560447 0.000000 0.000000 0.000000 -0.933507 -2.176859 61.845628 11.299284 18.943478 -3.987570 -0.459196 6.620145 5.830230 15.788495 -2.734481 -17.205880 -2.198337 -31.113554 7.361212 -6.563771 -4.145956 2.404835 0.000003 0.000002 0.000001 2.371232 -3.658863 8.486745 -2.131704 -2.469825 18.672206 -1.937580 -4.791117 14.170604 -0.000000 -0.000000 0.000002 -1.983668 -5.667157 13.658582 0.267049 -5.081403 26.987162 -0.669511 -1.182125 16.124825 -0.000001 -0.000001 0.000003 -3.231402 -8.564184 11.751485 4.036749 -4.043068 33.257171 2.103021 -3.154946 15.587803 -0.000000 -0.000000 0.000002 -17.077114 16.719156 17.227373 28.083306 9.558361 -5.136517 -11.722976 -1.475571 -9.413550 -0.184450 0.008008 -0.266056 0.000000 -0.000000 -0.000000 -14.528883 0.510439 -12.875064 22.470942 11.010662 2.297398 -11.781176 -2.093084 8.555176 -1.288099 -0.027258 0.150342 0.000000 -0.000001 -0.000000 
-0.006107 33.490520 -0.879747 2.996636 -29.029178 1.199462 7.836619 -0.331220 -2.653596 1.099091 -0.876626 2.383001 0.000000 0.000000 0.000000 1.108488 -0.585944 2.445761 -3.844998 18.060111 -6.523147 -6.313228 13.058517 0.301025 0.000000 -0.000000 -0.000000 -0.070041 -8.744151 -0.065977 0.000000 0.000000 0.000000 -54.884350 0.118809 -41.197597 11.633609 -65.908839 13.201980 -50.544366 12.176066 4.648548 17.563627 -5.694001 -12.929218 10.852313 26.148375 8.654090 20.924889 51.116412 0.219851 -0.000000 0.000001 0.000002 13.978249 1.203573 -55.006054 0.372693 1.163876 -65.441852 1.986576 2.154435 -57.665115 0.000000 -0.000000 -0.000000 7.502543 1.175427 -63.755294 1.809513 1.478256 -64.569883 0.130998 -0.903799 -43.270799 0.000000 0.000002 -0.000001 8.574333 2.179122 -75.149020 -0.208032 1.014698 -57.856804 0.433171 1.760591 -53.580894 0.000000 0.000000 -0.000002 4.841100 7.792201 5.599182 0.000000 0.000000 0.000000 -0.876147 -2.203260 61.799736 11.304726 18.977110 -3.997577 -0.474796 6.723938 5.694310 15.788493 -2.734476 -17.205883 -2.198338 -31.113554 7.361209 -6.563769 -4.145954 2.404837 -0.000000 -0.000004 0.000001 2.371237 -3.658861 8.486750 -2.131688 -2.469824 18.672182 -1.937602 -4.791113 14.170589 0.000000 -0.000000 -0.000000 -1.983648 -5.667155 13.658566 0.267032 -5.081400 26.987167 -0.669519 -1.182127 16.124798 -0.000000 0.000000 0.000001 -3.231396 -8.564181 11.751466 4.036762 -4.043074 33.257195 2.103014 -3.154943 15.587806 0.000001 -0.000000 0.000001 -17.141398 16.707348 17.234039 28.090522 9.557382 -5.138752 -11.734893 -1.474209 -9.414838 -0.175133 0.007968 -0.276801 0.000000 -0.000000 0.000000 -14.601163 0.510162 -12.864736 22.481713 11.016562 2.295801 -11.797075 -2.081770 8.543351 -1.278340 -0.027699 0.171756 0.000000 0.000000 -0.000000 
-0.013307 33.488354 -0.871799 3.094934 -29.034007 1.242701 7.836758 -0.328178 -2.654412 1.098789 -0.869324 2.381755 0.000000 0.000000 0.000000 1.110465 -0.579780 2.444746 -3.800850 18.130551 -6.587807 -6.340685 13.102959 0.312260 0.000000 0.000000 -0.000000 -0.072276 -8.728848 -0.064808 0.000000 0.000000 0.000000 -54.827561 0.180454 -41.050417 11.670635 -66.019106 13.220232 -50.602932 12.088238 4.574814 17.563630 -5.693992 -12.929218 10.852310 26.148379 8.654086 20.924886 51.116402 0.219851 -0.000003 -0.000000 -0.000002 13.978251 1.203573 -55.006054 0.372693 1.163876 -65.441852 1.986575 2.154434 -57.665115 0.000000 -0.000002 -0.000000 7.502544 1.175427 -63.755294 1.809513 1.478255 -64.569876 0.130999 -0.903798 -43.270795 0.000000 -0.000002 0.000000 8.574332 2.179123 -75.149013 -0.208031 1.014699 -57.856804 0.433174 1.760591 -53.580894 0.000000 -0.000000 -0.000000 4.839198 7.844302 5.594998 0.000000 0.000000 0.000000 -0.848534 -2.241855 61.787285 11.331107 18.903927 -3.971936 -0.529479 6.824016 5.581368 15.788491 -2.734474 -17.205885 -2.198340 -31.113550 7.361213 -6.563765 -4.145955 2.404834 0.000003 -0.000000 -0.000000 2.371257 -3.658864 8.486751 -2.131702 -2.469827 18.672216 -1.937616 -4.791118 14.170600 0.000001 -0.000000 -0.000000 -1.983642 -5.667160 13.658581 0.267031 -5.081396 26.987170 -0.669517 -1.182128 16.124801 0.000000 -0.000001 0.000003 -3.231380 -8.564186 11.751465 4.036761 -4.043069 33.257195 2.103011 -3.154934 15.587810 0.000001 -0.000000 0.000000 -17.220766 16.662562 17.254362 28.108727 9.556024 -5.146337 -11.747360 -1.454785 -9.438378 -0.175270 0.007968 -0.276631 0.000000 -0.000000 -0.000000 -14.706125 0.505710 -12.865379 22.508028 11.045803 2.288844 -11.804128 -2.074175 8.540374 -1.278660 -0.027691 0.171034 -0.000000 -0.000001 -0.000000 
-0.019824 33.486462 -0.864321 3.192381 -29.031005 1.283976 7.831929 -0.316064 -2.650946 1.104966 -0.859955 2.374749 0.000000 0.000000 0.000000 1.116787 -0.570571 2.437569 -3.760154 18.197028 -6.652758 -6.378134 13.164527 0.327757 0.000000 -0.000000 0.000000 -0.091588 -8.709483 -0.063575 0.000000 0.000000 0.000000 -54.824030 0.285204 -40.971522 11.705530 -66.122542 13.258959 -50.558501 12.058961 4.470706 17.563628 -5.693994 -12.929223 10.852311 26.148377 8.654085 20.924887 51.116408 0.219853 0.000001 0.000001 0.000005 13.978251 1.203574 -55.006058 0.372693 1.163876 -65.441852 1.986573 2.154434 -57.665115 -0.000001 0.000001 0.000001 7.502544 1.175428 -63.755294 1.809515 1.478254 -64.569883 0.130999 -0.903801 -43.270799 0.000000 -0.000001 0.000000 8.574332 2.179122 -75.149013 -0.208031 1.014699 -57.856804 0.433172 1.760592 -53.580894 -0.000001 0.000001 0.000002 4.835602 7.900904 5.599405 0.000000 0.000000 0.000000 -0.826510 -2.297768 61.813758 11.287205 18.781859 -4.000383 -0.510027 6.876273 5.554244 15.788493 -2.734469 -17.205882 -2.198341 -31.113550 7.361213 -6.563767 -4.145953 2.404839 -0.000000 -0.000000 -0.000000 2.371249 -3.658865 8.486732 -2.131712 -2.469829 18.672194 -1.937585 -4.791118 14.170586 0.000001 -0.000000 -0.000001 -1.983638 -5.667152 13.658572 0.267039 -5.081406 26.987162 -0.669512 -1.182123 16.124818 -0.000001 -0.000001 0.000002 -3.231370 -8.564186 11.751464 4.036741 -4.043067 33.257195 2.103016 -3.154941 15.587815 -0.000002 0.000000 -0.000001 -17.298955 16.601589 17.261964 28.145529 9.587423 -5.162270 -11.771640 -1.438401 -9.450764 -0.170238 0.007940 -0.277830 0.000000 0.000000 -0.000000 -14.782840 0.484940 -12.853094 22.523049 11.032889 2.288085 -11.825772 -2.071430 8.533493 -1.278173 -0.027997 0.184514 -0.000000 -0.000002 -0.000000 
-0.026770 33.484211 -0.857416 3.291145 -29.017379 1.323150 7.820378 -0.299014 -2.646186 1.117935 -0.846390 2.364979 0.000000 0.000000 0.000000 1.129927 -0.558665 2.427739 -3.726533 18.293530 -6.716438 -6.418724 13.211866 0.340642 -0.000000 0.000000 0.000000 -0.083040 -8.692242 -0.064152 0.000000 0.000000 0.000000 -54.911880 0.413687 -40.900009 11.726530 -66.225808 13.255930 -50.455827 12.050495 4.384012 17.563632 -5.693997 -12.929218 10.852313 26.148375 8.654086 20.924877 51.116408 0.219851 0.000000 -0.000000 0.000003 13.978249 1.203574 -55.006058 0.372692 1.163876 -65.441859 1.986574 2.154434 -57.665115 0.000000 -0.000000 0.000000 7.502542 1.175429 -63.755294 1.809515 1.478255 -64.569883 0.130997 -0.903800 -43.270802 0.000000 0.000001 -0.000000 8.574332 2.179121 -75.149013 -0.208033 1.014699 -57.856804 0.433173 1.760592 -53.580894 0.000000 0.000000 -0.000000 4.830481 7.962099 5.611518 0.000000 0.000000 0.000000 -0.812633 -2.366840 61.793213 11.316470 18.639492 -3.971509 -0.576983 6.833653 5.541620 15.788491 -2.734477 -17.205883 -2.198337 -31.113554 7.361212 -6.563770 -4.145952 2.404838 -0.000000 0.000001 0.000002 2.371247 -3.658856 8.486735 -2.131701 -2.469833 18.672214 -1.937599 -4.791112 14.170602 0.000000 0.000000 -0.000001 -1.983636 -5.667151 13.658576 0.267030 -5.081399 26.987167 -0.669518 -1.182128 16.124803 0.000000 0.000000 0.000001 -3.231383 -8.564181 11.751466 4.036761 -4.043059 33.257195 2.102998 -3.154947 15.587806 0.000001 0.000001 -0.000002 -17.380270 16.517023 17.267280 28.193288 9.628972 -5.179688 -11.797725 -1.401979 -9.467296 -0.165780 0.007916 -0.276375 -0.000000 0.000000 -0.000000 -14.871673 0.459825 -12.838481 22.549798 11.044174 2.287300 -11.851472 -2.058071 8.512137 -1.277163 -0.027993 0.184460 0.000000 0.000003 0.000000 
